<svg width="20" height="20" viewBox="0 0 20 20" fill="none" xmlns="http://www.w3.org/2000/svg">
<path d="M20 18.0383L14.7877 12.8675C15.768 11.53 16.3476 9.885 16.3476 8.10833C16.3476 3.6375 12.6809 0 8.17338 0C3.66668 0 0 3.6375 0 8.10833C0 12.58 3.66668 16.2167 8.17338 16.2167C9.88198 16.2167 11.4688 15.6942 12.7826 14.8017L18.0226 20L20 18.0383ZM2.39741 8.10833C2.39741 4.94833 4.98887 2.3775 8.17422 2.3775C11.3596 2.3775 13.951 4.94833 13.951 8.10833C13.951 11.2683 11.3596 13.8392 8.17422 13.8392C4.98803 13.8392 2.39741 11.2683 2.39741 8.10833Z" fill="black"/>
</svg>
